<?xml version="1.0" standalone="no"?>
<!DOCTYPE svg PUBLIC "-//W3C//DTD SVG 20010904//EN"
 "http://www.w3.org/TR/2001/REC-SVG-20010904/DTD/svg10.dtd">
<svg version="1.0" xmlns="http://www.w3.org/2000/svg"
 width="225.000000pt" height="225.000000pt" viewBox="0 0 225.000000 225.000000"
 preserveAspectRatio="xMidYMid meet">
<metadata>
Created by potrace 1.15, written by Peter Selinger 2001-2017
</metadata>
<g transform="translate(0.000000,225.000000) scale(0.100000,-0.100000)"
fill="#000000" stroke="none">
<path d="M1076 2235 c-16 -16 -29 -56 -62 -182 l-18 -72 -56 -12 c-152 -31
-307 -109 -411 -206 l-36 -34 -105 61 c-107 61 -134 70 -156 48 -23 -23 -11
-64 53 -173 36 -60 64 -112 62 -115 -29 -50 -73 -162 -89 -229 -12 -47 -22
-92 -24 -98 -2 -7 -15 -13 -30 -13 -26 0 -116 -23 -166 -42 -58 -22 -43 -81
25 -98 86 -23 162 -43 165 -45 1 -1 7 -28 13 -61 13 -76 45 -176 76 -237 l24
-48 -60 -104 c-61 -103 -72 -140 -49 -163 21 -21 48 -13 139 38 49 28 91 50
95 50 3 0 30 -22 60 -49 110 -100 272 -182 419 -211 l60 -12 29 -104 c29 -109
46 -132 87 -119 24 8 39 41 65 144 10 40 23 75 29 76 5 2 46 10 90 18 149 27
314 109 423 211 l47 44 85 -49 c87 -50 117 -58 138 -37 22 22 12 59 -44 153
l-55 95 25 42 c32 55 71 174 86 260 l12 67 96 23 c93 22 132 43 132 71 0 31
-30 48 -132 74 l-106 27 -6 49 c-8 60 -56 194 -91 254 l-26 44 60 104 c61 103
72 140 49 163 -18 18 -49 14 -98 -14 -25 -14 -68 -39 -96 -55 l-52 -29 -43 36
c-117 98 -248 161 -399 192 l-93 19 -33 118 c-37 138 -66 172 -108 130z m83
-319 c27 -97 46 -178 43 -181 -3 -3 -47 -5 -99 -5 -82 0 -93 2 -93 18 0 9 15
73 34 142 19 69 39 145 46 169 6 23 14 41 17 38 2 -3 26 -84 52 -181z m-551
-334 c34 -20 62 -39 62 -43 0 -11 -134 -138 -141 -133 -5 3 -171 279 -196 326
-4 7 79 -39 275 -150z m1289 151 c-76 -136 -192 -323 -201 -323 -6 0 -41 29
-76 66 -52 52 -62 67 -50 74 41 25 325 189 328 189 2 1 1 -2 -1 -6z m-737
-508 c41 -21 60 -53 60 -101 0 -129 -173 -154 -219 -32 -15 41 6 97 48 125 39
27 71 29 111 8z m-552 -448 c50 -50 60 -66 50 -74 -21 -18 -329 -193 -325
-185 49 93 192 322 201 322 6 0 40 -28 74 -63z m1190 -93 c51 -86 91 -158 89
-160 -6 -7 -327 179 -327 189 0 12 122 126 135 127 6 0 52 -70 103 -156z
m-598 -184 c0 -11 -18 -86 -40 -168 -52 -188 -51 -184 -57 -178 -9 8 -101 351
-96 359 2 4 47 7 99 7 87 0 94 -1 94 -20z"/>
</g>
</svg>
